<svg clip-rule="evenodd" fill-rule="evenodd" stroke-linejoin="round" stroke-miterlimit="2" viewBox="0 0 48 48" xmlns="http://www.w3.org/2000/svg"><g fill-rule="nonzero"><path d="m24.002 43.02c-10.372 0-18.812-8.44-18.812-18.813 0-10.374 8.438-18.81 18.812-18.81s18.809 8.438 18.809 18.81c0 10.373-8.437 18.813-18.809 18.813z"/><path d="m15.034 41.85c-1.896.701-3.666 1.109-5.219 1.168-.331-1.129-1.365-1.961-2.602-1.961-.65 0-1.242.238-1.714.623-1.546-1.652-1.532-4.805.096-8.854.204-.514-.045-1.096-.558-1.301-.513-.209-1.096.043-1.301.557-2.082 5.188-1.786 9.301.78 11.436-.011.088-.026.174-.026.266 0 1.5 1.222 2.721 2.723 2.721 1.05 0 1.948-.604 2.401-1.473 2.339-.047 5.077-.791 7.993-2.086-.883-.309-1.746-.675-2.573-1.096zm-7.818 2.648c-.396 0-.723-.324-.723-.723 0-.396.324-.721.723-.721.397 0 .723.322.723.721s-.326.723-.723.723z"/><path d="m33.324 6.372c.104 0 .213-.017.318-.052 1.018-.343 1.981-.593 2.885-.749.453 1.008 1.463 1.714 2.638 1.714.992 0 1.869-.504 2.392-1.268.918.488 1.534 1.243 1.848 2.308.584 1.977.093 4.751-1.28 7.909.379.857.688 1.747.944 2.662 2.24-4.373 3.09-8.315 2.256-11.139-.52-1.757-1.654-3.036-3.304-3.746-.188-1.415-1.392-2.515-2.854-2.515-1.31 0-2.401.878-2.759 2.071-1.067.171-2.205.453-3.399.854-.521.177-.806.742-.629 1.267.138.419.526.684.944.684zm5.841-2.874c.492 0 .894.4.894.895s-.398.894-.894.894c-.492 0-.894-.399-.894-.894s.402-.895.894-.895z"/></g></svg>